{/*?xml version="1.0" encoding="UTF-8" standalone="no"?*/}
{/* Created with Inkscape (http://www.inkscape.org/) */}
<svg width="50.017006mm" height="50.017033mm" viewBox="0 0 50.017006 50.017033" version="1.1" id="svg5" xmlns="http://www.w3.org/2000/svg" xmlns:svg="http://www.w3.org/2000/svg">
  <defs id="defs2" />
  <g id="layer1" transform="translate(-125.96102,-58.744484)">
    <g id="g4696" transform="rotate(-105,150.96952,83.752969)">
      <g id="g4656" transform="translate(55.823249,-31.148478)">
        <path style={{fill: 'none', stroke: '#000000', strokeWidth: 2, strokeLinecap: 'butt', strokeLinejoin: 'miter', strokeDasharray: 'none', strokeOpacity: 1}} d="m 100.55567,124.27081 -7.566234,8.53254 -6.858859,-33.517541 25.597613,22.698721 z" id="path4648" />
        <path style={{fill: 'none', fillOpacity: 1, fillRule: 'evenodd', stroke: '#000000', strokeWidth: '2.4191', strokeLinecap: 'round', strokeLinejoin: 'round', strokeDasharray: 'none', strokeDashoffset: 26, strokeOpacity: 1, paintOrder: 'stroke markers fill'}} id="path4650" d="m 39.789424,128.47832 a 23.797173,23.797173 0 0 1 3.770583,33.4318 23.797173,23.797173 0 0 1 -33.429436,3.79149 23.797173,23.797173 0 0 1 -3.8123932,-33.42706 23.797173,23.797173 0 0 1 33.4246672,-3.8333" transform="rotate(-30)" />
        <path style={{fill: 'none', stroke: '#000000', strokeWidth: 2, strokeLinecap: 'butt', strokeLinejoin: 'miter', strokeDasharray: 'none', strokeOpacity: 1}} d="M 86.130576,99.285809 100.55567,124.27081" id="path4652" />
        <path style={{fill: '#000000', fillOpacity: 1, fillRule: 'evenodd', stroke: '#000000', strokeWidth: 2, strokeLinecap: 'round', strokeLinejoin: 'round', strokeDasharray: 'none', strokeDashoffset: 26, strokeOpacity: 1, paintOrder: 'stroke markers fill'}} d="m 105.99359,123.063 -5.3874,1.09834 L 93.571525,111.9689 86.53686,99.776449 98.949734,110.7775 c 6.827076,6.05058 12.444106,11.0294 12.482286,11.06404 0.0429,0.0389 0.0464,0.0745 0.009,0.0931 -0.0331,0.0165 -2.48455,0.52432 -5.44762,1.12841 z" id="path4654" />
      </g>
    </g>
  </g>
</svg>
